<svg width="20" height="24" viewBox="0 0 20 24" fill="none" xmlns="http://www.w3.org/2000/svg">
<path d="M16.6638 23.0371C15.3716 24.3036 13.9606 24.1036 12.6024 23.5037C11.1651 22.8904 9.84643 22.8638 8.32999 23.5037C6.43114 24.3303 5.42897 24.0903 4.29493 23.0371C-2.14006 16.3313 -1.19063 6.11923 6.11466 5.74594C7.89483 5.83926 9.13436 6.73248 10.1761 6.81247C11.7321 6.49251 13.2222 5.57263 14.8837 5.69261C16.8748 5.85259 18.3781 6.65249 19.3671 8.09231C15.2529 10.5853 16.2287 16.0646 20 17.5978C19.2484 19.5975 18.2726 21.5839 16.6506 23.0504L16.6638 23.0371ZM10.0442 5.66595C9.84643 2.69299 12.2332 0.23997 14.976 0C15.3584 3.43957 11.8903 5.99924 10.0442 5.66595Z" fill="black"/>
</svg>
