<svg width="29" height="25" viewBox="0 0 29 25" fill="none" xmlns="http://www.w3.org/2000/svg">
<path d="M17.875 18.25V21.125C17.875 21.8875 17.5787 22.6188 17.0512 23.1579C16.5238 23.6971 15.8084 24 15.0625 24H3.8125C3.06658 24 2.35121 23.6971 1.82376 23.1579C1.29632 22.6188 1 21.8875 1 21.125V3.875C1 3.1125 1.29632 2.38124 1.82376 1.84207C2.35121 1.3029 3.06658 1 3.8125 1H14.5C16.0532 1 17.875 2.28728 17.875 3.875V6.75M22.375 18.25L28 12.5L22.375 6.75M8.875 12.5H26.875" stroke="#CECDCE" stroke-width="1.6" stroke-linecap="round" stroke-linejoin="round"/>
</svg>
