<svg width="29" height="20" viewBox="0 0 29 20" fill="none" xmlns="http://www.w3.org/2000/svg">
<path d="M26.5306 0H2.04082C1.49956 0 0.980469 0.210714 0.597741 0.585786C0.215014 0.960859 0 1.46957 0 2V18C0 18.5304 0.215014 19.0391 0.597741 19.4142C0.980469 19.7893 1.49956 20 2.04082 20H26.5306C27.0719 20 27.591 19.7893 27.9737 19.4142C28.3564 19.0391 28.5714 18.5304 28.5714 18V2C28.5714 1.46957 28.3564 0.960859 27.9737 0.585786C27.591 0.210714 27.0719 0 26.5306 0ZM24.2857 2L14.2857 8.78L4.28571 2H24.2857ZM2.04082 18V2.91L13.7041 10.82C13.8749 10.9361 14.0778 10.9984 14.2857 10.9984C14.4936 10.9984 14.6965 10.9361 14.8673 10.82L26.5306 2.91V18H2.04082Z" fill="#CECDCE"/>
</svg>
